<?xml version="1.0" encoding="UTF-8"?>
<svg xmlns="http://www.w3.org/2000/svg" id="Layer_1" data-name="Layer 1" viewBox="0 0 64 64" width="512" height="512"><path d="M61,30V26a1,1,0,0,0-.431-.822l-.667-.462a49.018,49.018,0,0,0-55.8,0l-.667.462A1,1,0,0,0,3,26v4H1v2H63V30ZM5,26.524l.236-.164a47.022,47.022,0,0,1,53.528,0l.236.164V30H57V28a1.066,1.066,0,0,0-.495-.864,45.644,45.644,0,0,0-49.042.02A1,1,0,0,0,7,28v2H5Zm8-.144c.661-.32,1.325-.63,2-.916V30H13ZM11,30H9V28.552c.655-.406,1.327-.776,2-1.146Zm6-5.338c.66-.242,1.33-.45,2-.659v6H17Zm4-1.232c.664-.173,1.328-.352,2-.494V30H21Zm4-.844q1-.162,2-.276V30H25Zm4-.482c.664-.045,1.332-.054,2-.069V30H29Zm4-.069c.668.015,1.336.023,2,.069V30H33Zm4,.275q1.005.116,2,.276V30H37Zm4,.627c.672.142,1.335.321,2,.494V30H41Zm4,1.068c.67.209,1.34.418,2,.66V30H45Zm4,1.462c.674.286,1.339.6,2,.916V30H49Zm4,1.941c.672.369,1.345.739,2,1.145V30H53Z"/><path d="M1,36H3v2H2a1,1,0,0,0-1,1v8a1,1,0,0,0,1,1h8a1,1,0,0,0,1-1V39a1,1,0,0,0-1-1H9V36H29v2H28a1,1,0,0,0-1,1v8a1,1,0,0,0,1,1h8a1,1,0,0,0,1-1V39a1,1,0,0,0-1-1H35V36H55v2H54a1,1,0,0,0-1,1v8a1,1,0,0,0,1,1h8a1,1,0,0,0,1-1V39a1,1,0,0,0-1-1H61V36h2V34H1ZM9,46H3V40H9ZM7,38H5V36H7Zm28,8H29V40h6Zm-2-8H31V36h2Zm28,8H55V40h6Zm-2-8H57V36h2Z"/></svg>
