<?xml version="1.0" encoding="utf-8"?>
<!-- Generator: Adobe Illustrator 24.3.0, SVG Export Plug-In . SVG Version: 6.00 Build 0)  -->
<svg version="1.1" id="圖層_1" xmlns="http://www.w3.org/2000/svg" xmlns:xlink="http://www.w3.org/1999/xlink" x="0px" y="0px"
	 viewBox="0 0 388.4 106.16" style="enable-background:new 0 0 388.4 106.16;" xml:space="preserve">
<style type="text/css">
	.st0{fill:#C30D23;}
	.st1{fill:#C9CACA;}
	.st2{fill:none;stroke:#FFFFFF;stroke-width:4.6008;stroke-miterlimit:10;}
	.st3{fill:#013A5E;}
</style>
<g>
	<path class="st0" d="M79.51,66.09c-9.47,11.25-20.69,17.6-31.13,18.53c6.63,5.44,14.18,8.34,20.92,8.62
		c9.8-5.33,16.96-18.04,17.6-30.34c-1.62,0.63-4.28,0.9-5.93,1.4C80.48,64.91,80,65.51,79.51,66.09z"/>
	<path class="st0" d="M45.67,87.91c-6.54,5.37-12.48,8.51-19.29,9.37c5.87,5.45,12.5,8.87,19.51,8.87c7.07,0,13.75-3.48,19.66-9.01
		C59.07,96.11,51.89,93.02,45.67,87.91z"/>
	<path class="st1" d="M76.07,53.86c-5.52,3.41-11.46,6.03-17.65,7.8c1.19,0.06,2.39,0.09,3.6,0.09c10.33,0,20.27-1.07,29.06-5.17
		c2.27-3.06,3.07-8.38,1.69-12.24c-1.21-0.23-2.49-0.48-3.76-0.73C85.13,47.5,80.79,50.94,76.07,53.86z"/>
	<path class="st1" d="M83.86,42.57c-0.28-0.06-0.55-0.12-0.82-0.17c-1-0.2-20.5-4.19-37.47-11.8c-12.02,5.39-25.3,8.96-32.39,10.66
		c8.72,8.86,19.83,15.36,32.27,18.46C59.93,58.31,73.35,52.22,83.86,42.57z"/>
	<path class="st2" d="M45.96,91.12"/>
	<path class="st2" d="M45.96,91.12"/>
	<path class="st0" d="M12.18,64.46c-2.23-0.76-4.45-1.77-6.65-3.02c0,12.71,8.21,25.75,16.96,31.83c0,0,0,0,0.01,0
		c7.12,0,13.47-2.91,20.47-8.65c-6.98-0.63-13.13-3.67-19.87-9.05C19.35,72.57,15.67,68.82,12.18,64.46z"/>
	<path class="st3" d="M26.16,14.34c8.36,6.05,16.79,10.23,19.41,11.47c2.63-1.25,11.1-5.45,19.47-11.51
		c1.65-1.2,3.37-2.52,5.06-3.94C58.09,3.49,45.86,0,45.86,0S32.01,3.07,19.59,9.11C21.77,11.03,24.01,12.78,26.16,14.34z"/>
	<path class="st3" d="M83.93,38.14c1.1,0.23,2.34,0.49,3.63,0.74c1.61-1.73,3.14-3.56,4.57-5.47c-2.48-8.49-9.91-15.4-18.11-20.68
		c-1.98,1.72-4.14,3.43-6.49,5.13c-6.41,4.64-12.75,8.17-16.77,10.24C66.54,34.6,83.72,38.1,83.91,38.14L83.93,38.14z"/>
	<path class="st0" d="M45.63,64.39c0,0-7.93,3.07-28.66,0.45c7.68,8.34,16.86,14.97,28.66,14.97c12.1,0,23.27-7.26,30.39-14.92
		C54.15,67.57,45.63,64.39,45.63,64.39z"/>
	<path class="st0" d="M7.99,43C5.98,43.49,2.31,43.99,0,44.26c0.98,18.33,18.99,17.5,36.24,17.41C18.67,53.8,13.18,49.6,7.99,43z"/>
	<path class="st1" d="M10.08,37.49c5.25-1.19,17.85-4.3,30.2-9.39c-4.02-2.07-10.36-5.6-16.77-10.24c-2.34-1.7-6.05-4.87-8.03-6.59
		c-5.52,3.56-10,8.52-13.09,13.97C3.45,27.95,7.61,35.09,10.08,37.49z"/>
	<g>
		<path class="st3" d="M139.99,84.64c-3.07-0.2-5.18-0.6-6.33-1.2c-1.43-0.76-2.15-2.57-2.15-5.44v-10.4l-6.16,0.96
			c-0.72,0.12-1.25-0.03-1.61-0.45s-0.54-1.03-0.54-1.82c0-1.32,0.82-2.11,2.45-2.39l5.86-0.9v-8.61l-5.44,0.84
			c-0.16,0.04-0.38,0.06-0.66,0.06c-1.31,0-1.97-0.74-1.97-2.21c0-0.68,0.2-1.2,0.6-1.58c0.4-0.38,1.02-0.65,1.85-0.81l5.62-0.9
			v-8.25l-6.16,0.9c-0.8,0.12-1.38-0.03-1.76-0.45c-0.38-0.42-0.57-1.05-0.57-1.88c0-0.76,0.28-1.35,0.84-1.79
			c0.24-0.2,1.29-0.42,3.17-0.66c5.38-0.68,10.48-1.79,15.3-3.35l1.14-0.18c0.76-0.12,1.33,0.06,1.73,0.54
			c0.4,0.48,0.6,1.16,0.6,2.03c0,1.04-0.86,1.77-2.57,2.21l-6.93,1.67v8.49l5.56-0.96l0.96-0.12c0.6-0.08,1.07,0.08,1.4,0.48
			c0.34,0.4,0.51,0.96,0.51,1.67c0,1.31-0.78,2.13-2.33,2.45l-6.1,1.02v8.67l5.86-0.96l0.9-0.06c1.27-0.04,1.91,0.66,1.91,2.09
			c0,1.4-0.86,2.23-2.57,2.51l-6.1,1.02v9.44c0,1.43,0.36,2.39,1.08,2.87c0.92,0.64,4.3,0.98,10.16,1.02h5.98
			c5.22,0,10.46-0.1,15.72-0.3c1.59-0.08,2.51-0.42,2.75-1.02c0.36-0.84,0.56-1.59,0.6-2.27c0.12-1.87,0.98-2.81,2.57-2.81
			c1.67,0,2.51,0.92,2.51,2.75c0,3.39-0.84,5.62-2.51,6.69c-1.59,1.04-7.53,1.55-17.81,1.55h-4.36
			C146.34,84.82,142.02,84.76,139.99,84.64z M142.98,69.17c0-0.88,0.72-1.67,2.15-2.39c1.27-0.6,3.86-2.11,7.77-4.54
			c0.6-0.36,1.05-0.54,1.37-0.54c1.23,0,1.85,0.78,1.85,2.33c0,0.72-1.65,2.13-4.96,4.24c-3.27,2.15-5.26,3.23-5.98,3.23
			C143.71,71.5,142.98,70.72,142.98,69.17z M150.69,75.14c0-1.59,0.9-2.39,2.69-2.39h1.97c1.35,0,2.07-0.74,2.15-2.21V46.28h-10.94
			c-1.79,0-2.69-0.74-2.69-2.21c0-1.43,0.9-2.15,2.69-2.15h10.94v-6.93c0-1.87,0.78-2.81,2.33-2.81s2.33,0.94,2.33,2.81v6.93h11.71
			c1.79,0,2.69,0.74,2.69,2.21c0,0.76-0.22,1.31-0.66,1.64c-0.44,0.34-1.12,0.51-2.03,0.51h-11.71v25.34c0,2.15-0.48,3.71-1.43,4.69
			s-2.47,1.4-4.54,1.29h-2.81C151.58,77.59,150.69,76.78,150.69,75.14z M149.85,56.5l-1.73-1.85c-1.55-1.67-2.33-2.75-2.33-3.23
			c0-1.31,0.74-1.97,2.21-1.97c0.84,0,2.11,0.84,3.82,2.51c1.71,1.71,2.57,2.93,2.57,3.65c0,1.55-0.76,2.33-2.27,2.33
			C151.44,57.93,150.69,57.45,149.85,56.5z M170.41,69.64l-0.96-0.78c-1.32-1.08-2.29-1.83-2.93-2.27
			c-0.96-0.68-1.65-1.26-2.09-1.73c-0.44-0.56-0.66-1-0.66-1.32c0-1.39,0.74-2.09,2.21-2.09c0.56,0,2.47,1.06,5.74,3.17
			c3.11,1.99,4.66,3.51,4.66,4.54c0,1.67-0.82,2.51-2.45,2.51C173.25,71.68,172.08,71,170.41,69.64z M164.55,56.68
			c0-0.48,0.6-1.31,1.79-2.51c1.15-1.16,2.27-2.33,3.35-3.53c1.08-1.15,1.95-1.73,2.63-1.73c1.55,0,2.33,0.74,2.33,2.21
			c0,0.76-1.08,2.25-3.23,4.48c-2.15,2.27-3.71,3.41-4.66,3.41C165.29,59.01,164.55,58.23,164.55,56.68z M167.06,37.13
			c-0.36-0.36-0.62-0.66-0.78-0.9c-0.16-0.24-0.24-0.5-0.24-0.78c0-1.31,0.66-1.97,1.97-1.97c0.8,0,1.95,0.7,3.47,2.09
			c1.39,1.28,2.09,2.23,2.09,2.87c0,1.35-0.72,2.03-2.15,2.03C170.74,40.48,169.29,39.37,167.06,37.13z"/>
		<path class="st3" d="M218.01,83.75V70.66c-2.43,2.91-6.26,5.92-11.47,9.02c-5.1,3.03-8.67,4.54-10.7,4.54
			c-1.55,0-2.33-0.86-2.33-2.57c0-1.15,1-2.09,2.99-2.81c8.13-2.87,14.68-6.63,19.66-11.29h-19.72c-0.96,0-1.65-0.18-2.09-0.54
			c-0.44-0.36-0.66-0.94-0.66-1.73c0-1.43,0.92-2.15,2.75-2.15h21.57v-4.48h-14.1c-1.91,0-3.33-0.48-4.24-1.43
			c-1-1.04-1.49-2.49-1.49-4.36V40.12c0-1.99,0.5-3.49,1.49-4.48c1-1,2.41-1.49,4.24-1.49h33.11c1.91,0,3.43,0.5,4.54,1.49
			c0.96,0.84,1.43,2.27,1.43,4.3v12.67c0,1.91-0.48,3.45-1.43,4.6c-0.84,0.96-2.27,1.43-4.3,1.43h-14.46v4.48h22.17
			c1.91,0,2.87,0.74,2.87,2.21c0,1.47-0.96,2.21-2.87,2.21h-20.38c6.1,5.46,12.57,9.06,19.42,10.82c2.67,0.64,4,1.63,4,2.99
			c0,1.79-0.88,2.69-2.63,2.69c-0.76,0-2.03-0.36-3.83-1.08c-8.05-3.11-14.3-7.31-18.76-12.61v13.39c0,1.99-0.8,2.99-2.39,2.99
			S218.01,85.74,218.01,83.75z M218.01,38.51h-12.37c-1.08,0-1.79,0.18-2.15,0.54c-0.36,0.36-0.52,1.06-0.48,2.09v2.87h15V38.51z
			 M218.01,48.37h-15v3.29c0,1.04,0.18,1.73,0.54,2.09c0.36,0.36,1.05,0.54,2.09,0.54h12.37V48.37z M238.15,41.14
			c0-1.04-0.17-1.73-0.51-2.09c-0.34-0.36-1.03-0.54-2.06-0.54h-12.79v5.5h15.36V41.14z M237.64,53.75
			c0.34-0.36,0.51-1.06,0.51-2.09v-3.29h-15.36v5.92h12.79C236.62,54.29,237.3,54.11,237.64,53.75z"/>
		<path class="st3" d="M291.16,80.76c0.86,0.56,1.29,1.12,1.29,1.67c0,1.43-0.74,2.15-2.21,2.15c-0.52,0-1.63-0.46-3.35-1.37
			l-2.75-1.26c-1.67,1.2-4.16,2.27-7.47,3.23c-3.15,0.92-6.04,1.37-8.67,1.37c-1.79,0-2.69-0.7-2.69-2.09
			c0-1.28,1.39-1.97,4.18-2.09c4.02-0.16,7.35-0.88,9.98-2.15l-6.75-1.79c-1.2-0.32-2.08-0.7-2.66-1.13
			c-0.58-0.44-0.87-0.98-0.87-1.61c0-0.52,0.36-1.33,1.08-2.45l0.78-1.25h-5.14c-1.4,0-2.09-0.64-2.09-1.91
			c0-1.24,0.7-1.85,2.09-1.85h7.17l1.55-2.93h-2.81c-1.59,0-2.79-0.27-3.59-0.81s-1.22-1.42-1.25-2.66v-3.41
			c0-2.63,1.61-3.84,4.84-3.65h6.27v-2.33h-5.8c-1.71,0-2.97-0.38-3.76-1.14c-0.8-0.76-1.12-1.97-0.96-3.65v-1.97h-1.97
			c-1.32,0-1.97-0.62-1.97-1.85c0-1.16,0.66-1.73,1.97-1.73h1.97v-1.73c0-1.71,0.37-2.97,1.11-3.76c0.74-0.8,1.94-1.14,3.62-1.02
			h5.8v-1.43c0-1.47,0.7-2.21,2.09-2.21s2.09,0.74,2.09,2.21v1.43h6.16c1.71,0,2.97,0.38,3.76,1.14c0.8,0.76,1.16,1.97,1.08,3.65
			v1.73h1.55c1.35,0,2.03,0.6,2.03,1.79c0,0.6-0.18,1.05-0.54,1.34c-0.36,0.3-0.86,0.45-1.49,0.45h-1.55v1.97
			c0,1.71-0.39,2.97-1.17,3.76c-0.78,0.8-2,1.14-3.67,1.02h-6.16v2.33h6.75c1.55,0,2.72,0.27,3.5,0.81
			c0.78,0.54,1.18,1.42,1.22,2.66v3.41c0,2.63-1.57,3.85-4.72,3.65H279l-1.37,2.93h17.51c1.39,0,2.09,0.64,2.09,1.91
			c0,1.24-0.7,1.85-2.09,1.85h-4.84c-0.68,2.79-1.71,5.12-3.11,6.99C288.98,79.6,290.31,80.2,291.16,80.76z M271.59,61.43
			c0.24,0.22,0.58,0.33,1.02,0.33h5.5v-3.46h-5.5c-0.48,0-0.83,0.14-1.05,0.42c-0.22,0.28-0.33,0.78-0.33,1.49
			C271.24,60.8,271.35,61.21,271.59,61.43z M271.77,42.09h6.33v-2.93h-4.9c-0.88,0-1.35,0.48-1.43,1.43V42.09z M278.11,48.85v-3.17
			h-6.33v1.73c0,0.92,0.48,1.4,1.43,1.43H278.11z M285.94,71.97H275.6l-0.42,0.66c-0.08,0.16-0.27,0.47-0.57,0.93
			c-0.3,0.46-0.45,0.79-0.45,0.99c0,0.52,0.48,0.88,1.43,1.08l7.53,2.03C284.48,76.18,285.42,74.29,285.94,71.97z M282.29,42.09
			h6.69V40.6c0-0.48-0.11-0.83-0.33-1.05c-0.22-0.22-0.59-0.35-1.11-0.39h-5.26V42.09z M282.29,48.85h5.26
			c0.96,0,1.43-0.48,1.43-1.43v-1.73h-6.69V48.85z M282.29,61.75h5.86c0.48,0,0.82-0.12,1.02-0.36c0.2-0.24,0.3-0.7,0.3-1.38
			c0-0.68-0.1-1.13-0.3-1.38c-0.2-0.24-0.54-0.36-1.02-0.36h-5.86V61.75z M318.39,83.63c0,1.75-0.8,2.63-2.39,2.63
			c-2.15,0-5.46-2.69-9.92-8.07c-1.75,2.19-3.76,4.1-6.04,5.74c-2.39,1.67-4.06,2.51-5.02,2.51c-0.8,0-1.37-0.19-1.73-0.57
			c-0.36-0.38-0.54-0.97-0.54-1.76c0-1.04,0.92-2.01,2.75-2.93c3.19-1.59,5.84-3.84,7.95-6.75c-1.08-2.03-2.01-4.92-2.81-8.67
			c-0.8-3.75-1.4-8.03-1.79-12.85c-1.43,2.83-2.59,4.24-3.47,4.24c-1.31,0-1.97-0.8-1.97-2.39c0-0.48,0.32-1.23,0.96-2.27
			c2.47-3.86,4.52-9.14,6.16-15.84c0.52-2.15,0.9-3.39,1.14-3.71c0.4-0.52,1.02-0.78,1.85-0.78c1.59,0,2.39,0.66,2.39,1.97
			c0,1.12-1.02,4.34-3.05,9.68h13.33c1.51,0,2.27,0.8,2.27,2.39c0,1.59-0.76,2.39-2.27,2.39h-2.09l-0.18,3.65
			c-0.28,5.22-0.76,9.44-1.43,12.67c-0.6,2.91-1.87,6.08-3.82,9.5c2.15,2.39,4.5,4.38,7.05,5.98
			C317.49,81.48,318.39,82.55,318.39,83.63z M309.66,49.56l0.06-0.96h-7.53l0.3,5.02c0.4,6.97,1.55,12.53,3.47,16.67
			C308.03,66.04,309.26,59.13,309.66,49.56z"/>
		<path class="st3" d="M388.4,74.6c0,1.31-0.82,1.97-2.45,1.97h-22.71v4.24c0,2.15-0.46,3.71-1.37,4.66
			c-0.92,0.96-2.37,1.35-4.36,1.2h-3.65c-1,0-1.72-0.18-2.18-0.54c-0.46-0.36-0.69-0.94-0.69-1.73c0-1.47,0.96-2.21,2.87-2.21h2.39
			c1.47,0,2.25-0.78,2.33-2.33v-3.29h-21.51c-1.59,0-2.39-0.66-2.39-1.97s0.8-1.97,2.39-1.97h21.51v-1.67
			c0-0.92,0.34-1.57,1.02-1.97c0.64-0.4,2.23-0.9,4.78-1.49l6.21-1.61v-0.12h-26.41c-1.55,0-2.33-0.62-2.33-1.85
			c0-0.64,0.18-1.12,0.54-1.43c0.36-0.32,0.96-0.48,1.79-0.48h31.97c1.51,0,2.67,0.17,3.47,0.51c0.8,0.34,1.19,0.85,1.19,1.52
			c0,0.64-1.37,1.53-4.12,2.69c-2.75,1.16-6.59,2.43-11.53,3.82c-1.28,0.36-1.91,0.94-1.91,1.73v0.36h22.71
			C387.58,72.63,388.4,73.29,388.4,74.6z M335.39,64.5v-4.6c0-1.63,0.32-2.83,0.96-3.59c0.64-0.76,1.67-1.16,3.11-1.2h0.84
			l-1.26-17.15c-0.04-1,0.19-1.82,0.69-2.48c0.5-0.66,1.26-1.11,2.3-1.34l6.16-1.02l1.91-0.48c0.16-0.04,0.39-0.1,0.69-0.18
			c0.3-0.08,0.55-0.12,0.75-0.12c1.23,0,1.85,0.7,1.85,2.09c0,0.64-0.56,1.17-1.67,1.58c-1.12,0.42-2.99,0.79-5.62,1.11
			c-0.88,0.12-1.5,0.33-1.88,0.63c-0.38,0.3-0.55,0.73-0.51,1.29l0.06,1.67h7.29c1.47,0,2.21,0.62,2.21,1.85
			c0,1.24-0.74,1.85-2.21,1.85h-6.99l0.24,3.29h6.75c1.47,0,2.21,0.64,2.21,1.91c0,1.24-0.74,1.85-2.21,1.85h-6.51l0.24,3.65h33.71
			l0.24-3.65h-7.17c-1.35,0-2.03-0.62-2.03-1.85c0-1.27,0.68-1.91,2.03-1.91h7.47l0.12-3.29h-7.59c-0.72,0-1.24-0.15-1.55-0.45
			c-0.32-0.3-0.48-0.77-0.48-1.4c0-1.23,0.68-1.85,2.03-1.85h8.01v-1.25c0-0.68-0.12-1.14-0.36-1.4c-0.24-0.26-0.68-0.39-1.31-0.39
			h-6.87c-1.28,0-1.91-0.58-1.91-1.73c0-0.64,0.15-1.11,0.45-1.4s0.79-0.45,1.46-0.45h8.49c3.11,0,4.66,1.2,4.66,3.59l-1.25,17.45
			h0.66c2.91,0,4.24,1.59,4,4.78v4.84c0,1.87-0.8,2.81-2.39,2.81c-0.8,0-1.4-0.22-1.79-0.66c-0.4-0.44-0.6-1.16-0.6-2.15v-3.71
			c0-1.23-0.66-1.89-1.97-1.97h-38.54c-1.28,0-1.95,0.66-2.03,1.97v3.53c0,1.87-0.8,2.81-2.39,2.81
			C336.21,67.37,335.39,66.42,335.39,64.5z M353.98,41.8c0-0.68,1.17-1.71,3.53-3.11l1.31-0.72c-2.51-1.75-3.76-2.89-3.76-3.41
			c0-0.48,0.15-0.86,0.45-1.14c0.3-0.28,0.73-0.42,1.28-0.42c0.48,0,2.07,0.94,4.78,2.81l1.73-1.79c0.84-0.92,1.59-1.37,2.27-1.37
			c0.6,0,1.05,0.14,1.34,0.42c0.3,0.28,0.45,0.66,0.45,1.14c0,0.68-1,1.89-2.99,3.65l0.66,0.36c1.67,1.2,2.51,2.19,2.51,2.99
			c0,0.6-0.16,1.06-0.48,1.37c-0.32,0.32-0.76,0.48-1.32,0.48s-1.24-0.38-2.03-1.14l-2.09-1.97c-3.03,2.39-5,3.59-5.92,3.59
			C354.56,43.53,353.98,42.95,353.98,41.8z M357.92,49.8l1.2-0.72l-0.66-0.42c-2.03-1.31-3.05-2.25-3.05-2.81
			c0-1.04,0.58-1.55,1.73-1.55c0.36,0,1.02,0.3,1.97,0.9l1.85,1.08l0.96,0.66l1.61-1.55c0.96-0.88,1.67-1.31,2.15-1.31
			c1.23,0,1.85,0.54,1.85,1.61c0,0.72-0.92,1.79-2.75,3.23c2.35,1.59,3.53,2.79,3.53,3.59c0,1.24-0.6,1.85-1.79,1.85
			c-0.48,0-1.16-0.38-2.03-1.14l-2.57-2.15c-1.43,1.12-2.69,1.98-3.76,2.6c-1.08,0.62-1.83,0.93-2.27,0.93
			c-1.16,0-1.73-0.56-1.73-1.67C354.16,52.23,355.41,51.2,357.92,49.8z"/>
	</g>
</g>
</svg>
